<svg width="24" height="24" fill="none" xmlns="http://www.w3.org/2000/svg"><path d="M16.254 7.746A6.052 6.052 0 0012 5.968c-1.65 0-3.175.667-4.254 1.778A6.052 6.052 0 005.968 12c0 1.65.699 3.175 1.778 4.254A6.052 6.052 0 0012 18.032c1.65 0 3.175-.667 4.254-1.778A6.052 6.052 0 0018.032 12c0-1.65-.667-3.175-1.778-4.254zM12 4.096a.84.84 0 00.825-.826V.825A.84.84 0 0012 0a.84.84 0 00-.825.825V3.27a.84.84 0 00.825.825zm6.762 2.317l1.746-1.746a.805.805 0 000-1.143.805.805 0 00-1.143 0L17.62 5.27a.805.805 0 000 1.143c.286.317.794.317 1.143 0zm4.413 4.762H20.73a.84.84 0 00-.825.825c0 .444.38.825.825.825h2.445A.84.84 0 0024 12a.84.84 0 00-.825-.825zm-4.445 6.412a.805.805 0 00-1.143 0 .805.805 0 000 1.143l1.746 1.746a.805.805 0 001.143 0 .805.805 0 000-1.143l-1.746-1.746zM12 19.905a.84.84 0 00-.825.825v2.445A.84.84 0 0012 24a.84.84 0 00.825-.825V20.73a.84.84 0 00-.825-.825zm-6.762-2.318l-1.746 1.746a.805.805 0 000 1.143.805.805 0 001.143 0L6.38 18.73a.805.805 0 000-1.143c-.286-.317-.794-.317-1.143 0zM4.095 12a.84.84 0 00-.825-.825H.825A.84.84 0 000 12a.84.84 0 00.825.825H3.27A.84.84 0 004.095 12zm1.143-5.587a.805.805 0 001.143 0 .805.805 0 000-1.143L4.635 3.524a.805.805 0 00-1.143 0 .805.805 0 000 1.143l1.746 1.746z" fill="#000"/></svg>
