<svg width="16" height="16" viewBox="0 0 16 16" fill="none" xmlns="http://www.w3.org/2000/svg"><path d="M10.482 5.519A3.53 3.53 0 0 0 8 4.48c-.963 0-1.852.39-2.481 1.038A3.53 3.53 0 0 0 4.48 8c0 .963.408 1.852 1.038 2.482A3.53 3.53 0 0 0 8 11.518c.963 0 1.852-.39 2.482-1.037A3.53 3.53 0 0 0 11.518 8c0-.963-.39-1.852-1.037-2.481ZM8 3.389a.49.49 0 0 0 .481-.481V1.48A.49.49 0 0 0 8 1a.49.49 0 0 0-.481.481v1.427a.49.49 0 0 0 .481.48v.001Zm3.944 1.352 1.019-1.019a.47.47 0 1 0-.667-.666l-1.018 1.018a.469.469 0 0 0 0 .667c.167.185.463.185.667 0Zm2.575 2.778h-1.427a.49.49 0 0 0-.48.481.49.49 0 0 0 .48.481h1.427A.49.49 0 0 0 15 8a.49.49 0 0 0-.481-.481Zm-2.593 3.74a.47.47 0 1 0-.667.667l1.019 1.018a.469.469 0 0 0 .77-.153.47.47 0 0 0-.104-.513l-1.018-1.019ZM8 12.611a.49.49 0 0 0-.481.481v1.427A.49.49 0 0 0 8 15a.49.49 0 0 0 .481-.481v-1.427a.49.49 0 0 0-.481-.48ZM4.056 11.26l-1.019 1.019a.47.47 0 0 0 .153.77.47.47 0 0 0 .514-.104l1.018-1.018a.47.47 0 0 0 0-.667c-.167-.185-.463-.185-.667 0ZM3.389 8a.49.49 0 0 0-.481-.481H1.48A.49.49 0 0 0 1 8a.49.49 0 0 0 .481.481h1.427A.49.49 0 0 0 3.388 8Zm.667-3.26a.47.47 0 0 0 .769-.152.47.47 0 0 0-.103-.514L3.704 3.056a.47.47 0 0 0-.77.152.47.47 0 0 0 .103.514l1.019 1.019Z" fill="#000"/></svg>
