<svg width="16" height="16" viewBox="0 0 16 16" fill="none" xmlns="http://www.w3.org/2000/svg"><path d="M12.757 8.698a.35.35 0 0 0-.294.064 3.747 3.747 0 0 1-1.138.668 3.546 3.546 0 0 1-1.292.231 3.752 3.752 0 0 1-2.66-1.104 3.785 3.785 0 0 1-1.1-2.671c0-.437.077-.86.205-1.246.135-.403.343-.778.614-1.105a.328.328 0 0 0-.191-.527.35.35 0 0 0-.154.001 5.154 5.154 0 0 0-2.711 1.823A5.08 5.08 0 0 0 3 7.915c0 1.4.563 2.67 1.483 3.595A5.02 5.02 0 0 0 8.063 13a5.071 5.071 0 0 0 4.924-3.904.312.312 0 0 0-.23-.398Z" fill="#000"/></svg>
