<svg width="24" height="24" fill="none" xmlns="http://www.w3.org/2000/svg"><path d="M23.416 13.669a.844.844 0 00-.706.153 9.002 9.002 0 01-2.731 1.596c-.952.369-1.995.553-3.1.553a9.025 9.025 0 01-6.383-2.64 9.025 9.025 0 01-2.64-6.383c0-1.043.185-2.056.492-2.977a8.24 8.24 0 011.473-2.64.783.783 0 00-.123-1.104.844.844 0 00-.706-.153c-2.609.705-4.88 2.27-6.506 4.357A12.106 12.106 0 000 11.797c0 3.345 1.35 6.383 3.56 8.593a12.054 12.054 0 008.593 3.56c2.823 0 5.432-.982 7.519-2.609a12.1 12.1 0 004.296-6.72c.123-.43-.122-.86-.552-.952z" fill="#000"/></svg>
