<svg width="256" height="256" fill="none" xmlns="http://www.w3.org/2000/svg"><path d="M126.998 243.953c-3.196 0-6.179-.852-8.948-2.344l-28.336-16.831c-4.261-2.343-2.13-3.195-.852-3.621 5.752-1.918 6.817-2.344 12.783-5.753.639-.426 1.491-.213 2.13.213l21.731 12.996c.853.426 1.918.426 2.557 0l85.007-49.214c.852-.427 1.279-1.279 1.279-2.344V78.838c0-1.065-.427-1.917-1.279-2.343l-85.007-49.002c-.852-.426-1.918-.426-2.557 0L40.499 76.495c-.852.426-1.278 1.491-1.278 2.343v98.217c0 .852.426 1.917 1.278 2.344l23.223 13.422c12.57 6.391 20.452-1.066 20.452-8.522V87.36c0-1.278 1.066-2.556 2.557-2.556h10.866c1.278 0 2.556 1.065 2.556 2.556V184.3c0 16.831-9.16 26.631-25.14 26.631-4.9 0-8.735 0-19.6-5.326l-22.37-12.783c-5.54-3.196-8.949-9.161-8.949-15.553V79.052c0-6.392 3.409-12.357 8.948-15.553l85.008-49.215c5.326-2.983 12.57-2.983 17.896 0L220.953 63.5c5.539 3.196 8.948 9.161 8.948 15.553v98.216c0 6.392-3.409 12.357-8.948 15.553l-85.007 49.214c-2.77 1.279-5.966 1.918-8.948 1.918zm26.205-67.537c-37.284 0-44.954-17.044-44.954-31.532 0-1.278 1.065-2.556 2.557-2.556h11.078c1.279 0 2.344.852 2.344 2.13 1.704 11.292 6.605 16.831 29.188 16.831 17.896 0 25.566-4.048 25.566-13.635 0-5.539-2.13-9.587-30.04-12.357-23.223-2.344-37.71-7.457-37.71-25.992 0-17.257 14.487-27.484 38.775-27.484 27.271 0 40.693 9.374 42.397 29.827 0 .639-.213 1.279-.639 1.918-.426.426-1.065.852-1.704.852h-11.079c-1.065 0-2.13-.852-2.343-1.917-2.557-11.718-9.162-15.553-26.632-15.553-19.6 0-21.944 6.817-21.944 11.931 0 6.178 2.77 8.096 29.188 11.504 26.205 3.409 38.562 8.309 38.562 26.632-.213 18.748-15.553 29.401-42.61 29.401z" fill="#539E43"/></svg>
