<svg width="256" height="256" fill="none" xmlns="http://www.w3.org/2000/svg"><path d="M127.802 149.252c11.823 0 21.408-9.585 21.408-21.408s-9.585-21.407-21.408-21.407-21.408 9.584-21.408 21.407 9.585 21.408 21.408 21.408z" fill="#00D8FF"/><path d="M127.802 84.322c28.737 0 55.436 4.124 75.563 11.05 24.252 8.348 39.165 21.004 39.165 32.465 0 11.942-15.804 25.391-41.846 34.015-19.688 6.522-45.603 9.932-72.882 9.932-27.973 0-54.453-3.197-74.368-10.003-25.192-8.61-40.367-22.228-40.367-33.944 0-11.369 14.24-23.926 38.153-32.26 20.205-7.039 47.562-11.255 76.582-11.255z" stroke="#00D8FF" stroke-width="4" stroke-miterlimit="10"/><path d="M89.918 106.21c14.354-24.895 31.269-45.963 47.328-59.935 19.349-16.838 37.764-23.431 47.69-17.708 10.343 5.964 14.1 26.374 8.56 53.25-4.188 20.318-14.177 44.464-27.81 68.1-13.972 24.23-29.975 45.574-45.815 59.426-20.042 17.524-39.426 23.863-49.571 18.012-9.848-5.681-13.612-24.287-8.893-49.168 3.99-21.04 14.008-46.841 28.51-71.977z" stroke="#00D8FF" stroke-width="4" stroke-miterlimit="10"/><path d="M89.953 149.967C75.556 125.092 65.751 99.921 61.662 79.03c-4.924-25.171-1.443-44.421 8.475-50.159 10.336-5.985 29.89.955 50.406 19.172 15.515 13.775 31.44 34.489 45.108 58.104 14.015 24.209 24.52 48.729 28.602 69.366 5.172 26.119.984 46.076-9.154 51.941-9.841 5.695-27.839-.332-47.039-16.851-16.215-13.958-33.569-35.522-48.107-60.636z" stroke="#00D8FF" stroke-width="4" stroke-miterlimit="10"/></svg>
