<svg width="256" height="256" viewBox="0 0 256 256" fill="none" xmlns="http://www.w3.org/2000/svg">
<g clip-path="url(#clip0_136_27)">
<path d="M177.44 211.587C154.571 226.319 123.127 227.833 91.4919 212.713C65.8775 200.56 44.6243 179.286 31 154.979C37.5397 161.056 45.1691 165.919 53.3435 170.171C86.0136 187.248 118.677 186.078 141.663 170.214C108.964 142.258 81.137 105.749 60.4291 75.9729C56.0675 71.1105 52.7976 65.0328 49.5278 59.5633C74.5963 85.0883 114.381 117.297 128.547 126.417C98.5778 91.1649 71.8723 47.4101 72.9601 48.6232C120.374 102.105 164.518 132.493 164.518 132.493C165.979 133.412 167.106 134.176 168.013 134.86C168.968 132.149 169.806 129.335 170.512 126.417C178.141 95.422 169.424 60.1699 150.347 31C194.488 60.7792 220.65 116.69 209.747 163.488C209.463 164.751 209.154 165.997 208.82 167.221C230.616 197.61 225.006 230.342 222.281 224.265C210.457 198.462 188.568 206.352 177.44 211.587Z" fill="url(#paint0_linear_136_27)"/>
</g>
<defs>
<linearGradient id="paint0_linear_136_27" x1="128.071" y1="31" x2="128.071" y2="225.01" gradientUnits="userSpaceOnUse">
<stop stop-color="#F88A36"/>
<stop offset="1" stop-color="#FD2020"/>
</linearGradient>
<clipPath id="clip0_136_27">
<rect width="256" height="256" fill="white"/>
</clipPath>
</defs>
</svg>
