<svg width="256" height="256" fill="none" xmlns="http://www.w3.org/2000/svg"><path fill="#fff" d="M0 1h255v255H0z"/><path d="M0 128.501v127.5h255.008V.993H0v127.508zm205.502-10.16c6.475 1.618 11.415 4.494 15.95 9.188 2.35 2.51 5.829 7.084 6.112 8.176.079.319-11.009 7.769-17.731 11.941-.239.159-1.215-.889-2.311-2.51-3.279-4.781-6.717-6.841-11.981-7.204-7.73-.526-12.75 3.522-12.67 10.28 0 1.984.279 3.155 1.092 4.781 1.701 3.522 4.861 5.626 14.774 9.921 18.256 7.849 26.065 13.029 30.918 20.4 5.419 8.216 6.638 21.332 2.957 31.086-4.048 10.607-14.085 17.81-28.21 20.201-4.37.769-14.734.649-19.427-.199-10.24-1.821-19.954-6.881-25.947-13.519-2.35-2.59-6.92-9.352-6.638-9.842.12-.159 1.176-.808 2.351-1.498l9.471-5.458 7.331-4.252 1.538 2.271c2.144 3.28 6.841 7.77 9.674 9.268 8.136 4.291 19.309 3.682 24.811-1.255 2.351-2.144 3.319-4.371 3.319-7.65 0-2.956-.359-4.251-1.901-6.475-1.984-2.828-6.032-5.219-17.531-10.2-13.156-5.665-18.822-9.188-24.002-14.774-2.996-3.239-5.829-8.419-7.004-12.75-.972-3.602-1.215-12.63-.446-16.272 2.709-12.75 12.303-21.575 26.149-24.205 4.494-.849 14.941-.526 19.348.566l.004-.016zm-59.865 10.638l.08 10.439h-33.19v94.31H89.051v-94.31H55.86v-10.24l.279-10.518c.12-.16 20.32-.239 44.808-.2l44.565.12.124 10.399z" fill="#007ACC"/></svg>
