<svg width="256" height="256" viewBox="0 0 256 256" fill="none" xmlns="http://www.w3.org/2000/svg">
<path d="M186.092 121.59L181.942 119.93C162.442 163.809 84.8641 137.133 80.1962 150.186C79.418 159.003 122.561 151.862 153.404 153.357C162.81 153.813 167.526 160.913 163.532 172.485L171.399 172.509C180.473 144.221 209.432 158.658 210.642 149.322C208.654 143.184 177.36 149.322 186.092 121.59Z" fill="white"/>
<path d="M165.76 167.648C167.004 163.499 166.589 159.349 164.515 156.859C162.44 154.37 159.535 152.71 155.801 152.295L83.6016 151.465C83.1868 151.465 82.772 151.05 82.3571 151.05C81.9423 150.635 81.9423 150.22 82.3571 149.806C82.772 148.976 83.1868 148.56 84.0165 148.56L156.631 147.731C165.345 147.316 174.474 140.262 177.792 131.963L181.942 121.175C181.942 120.759 182.357 120.345 181.942 119.93C177.378 98.768 158.291 83 135.884 83C115.137 83 97.2946 96.2781 91.0704 114.951C86.9212 112.046 81.9423 110.386 76.1329 110.802C66.1743 111.631 58.2907 119.93 57.0454 129.888C56.6305 132.378 57.0454 134.868 57.461 137.357C41.2781 137.772 28 151.05 28 167.648C28 169.307 28 170.552 28.4148 172.212C28.4148 173.042 29.2445 173.457 29.6602 173.457H162.855C163.685 173.457 164.515 173.042 164.515 172.212L165.76 167.648Z" fill="#F4811F"/>
<path d="M188.581 121.175H186.506C186.091 121.175 185.677 121.59 185.262 122.004L182.357 131.963C181.113 136.112 181.527 140.262 183.602 142.751C185.677 145.241 188.581 146.901 192.316 147.316L207.669 148.146C208.084 148.146 208.499 148.561 208.913 148.561C209.328 148.976 209.328 149.39 208.913 149.805C208.499 150.636 208.084 151.051 207.253 151.051L191.486 151.88C182.772 152.295 173.644 159.349 170.324 167.648L169.494 171.383C169.079 171.798 169.494 172.627 170.324 172.627H225.096C225.926 172.627 226.341 172.212 226.341 171.383C227.17 168.063 228 164.329 228 160.594C228 139.017 210.158 121.175 188.581 121.175Z" fill="#FAAD3F"/>
</svg>
