<svg width="256" height="256" fill="none" xmlns="http://www.w3.org/2000/svg"><path fill="#f3f4f5" d="M0 0h256v256H0z"/><path d="M42.932 121.304c3.89 0 6.91 1.025 9.058 3.075 2.148 2.05 3.34 4.379 3.577 6.987h-4.058c-.46-1.981-1.381-3.55-2.762-4.707-1.367-1.158-3.291-1.736-5.773-1.736-3.027 0-5.474 1.067-7.343 3.2-1.855 2.12-2.782 5.377-2.782 9.77 0 3.598.836 6.519 2.51 8.765 1.687 2.231 4.198 3.347 7.53 3.347 3.069 0 5.405-1.179 7.009-3.535.85-1.242 1.485-2.873 1.903-4.896h4.059c-.363 3.236-1.562 5.948-3.598 8.138-2.44 2.636-5.732 3.954-9.874 3.954-3.57 0-6.569-1.081-8.995-3.243-3.194-2.859-4.791-7.273-4.791-13.242 0-4.532 1.2-8.249 3.598-11.15 2.594-3.151 6.171-4.727 10.732-4.727zM63.663 142.955c.097 1.743.509 3.159 1.234 4.246 1.38 2.037 3.814 3.055 7.3 3.055 1.563 0 2.985-.223 4.268-.67 2.483-.864 3.724-2.412 3.724-4.644 0-1.673-.523-2.866-1.569-3.577-1.06-.697-2.72-1.304-4.979-1.82l-4.163-.941c-2.72-.614-4.644-1.29-5.773-2.03-1.953-1.283-2.93-3.2-2.93-5.752 0-2.762.956-5.028 2.867-6.799 1.91-1.771 4.616-2.657 8.116-2.657 3.222 0 5.956.781 8.2 2.343 2.26 1.548 3.39 4.031 3.39 7.447h-3.912c-.21-1.645-.656-2.907-1.339-3.786-1.269-1.604-3.424-2.406-6.464-2.406-2.454 0-4.219.516-5.293 1.548-1.073 1.032-1.61 2.232-1.61 3.598 0 1.507.627 2.608 1.882 3.306.823.446 2.685 1.004 5.586 1.673l4.31.983c2.077.475 3.681 1.123 4.81 1.946 1.953 1.436 2.93 3.521 2.93 6.255 0 3.403-1.242 5.836-3.724 7.301-2.469 1.464-5.342 2.196-8.619 2.196-3.821 0-6.813-.976-8.974-2.929-2.162-1.938-3.222-4.567-3.18-7.886h3.912zM92.197 142.955c.097 1.743.509 3.159 1.234 4.246 1.38 2.037 3.814 3.055 7.301 3.055 1.562 0 2.984-.223 4.267-.67 2.483-.864 3.724-2.412 3.724-4.644 0-1.673-.523-2.866-1.569-3.577-1.06-.697-2.72-1.304-4.979-1.82l-4.163-.941c-2.72-.614-4.644-1.29-5.773-2.03-1.953-1.283-2.93-3.2-2.93-5.752 0-2.762.956-5.028 2.867-6.799 1.91-1.771 4.616-2.657 8.116-2.657 3.222 0 5.956.781 8.201 2.343 2.259 1.548 3.389 4.031 3.389 7.447h-3.912c-.209-1.645-.656-2.907-1.339-3.786-1.269-1.604-3.424-2.406-6.464-2.406-2.455 0-4.219.516-5.293 1.548-1.073 1.032-1.61 2.232-1.61 3.598 0 1.507.627 2.608 1.882 3.306.823.446 2.685 1.004 5.586 1.673l4.309.983c2.078.475 3.682 1.123 4.812 1.946 1.952 1.436 2.928 3.521 2.928 6.255 0 3.403-1.241 5.836-3.723 7.301-2.469 1.464-5.342 2.196-8.619 2.196-3.821 0-6.813-.976-8.974-2.929-2.162-1.938-3.222-4.567-3.18-7.886h3.912zM29.878 175.694h5.962l8.828 25.982 8.765-25.982h5.9v30.73h-3.954v-18.137c0-.627.014-1.666.041-3.117.028-1.45.042-3.005.042-4.665l-8.765 25.919h-4.121l-8.828-25.919v.942c0 .753.014 1.903.042 3.451.042 1.534.063 2.664.063 3.389v18.137h-3.975v-30.73zM78.976 174.857c5.425 0 9.441 1.743 12.05 5.23 2.035 2.719 3.053 6.199 3.053 10.439 0 4.588-1.164 8.402-3.493 11.443-2.734 3.57-6.632 5.355-11.694 5.355-4.728 0-8.444-1.562-11.15-4.686-2.413-3.012-3.62-6.82-3.62-11.422 0-4.156 1.033-7.712 3.097-10.669 2.65-3.793 6.569-5.69 11.757-5.69zm.418 28.743c3.668 0 6.318-1.311 7.95-3.933 1.645-2.635 2.468-5.662 2.468-9.079 0-3.612-.948-6.519-2.845-8.723-1.883-2.203-4.463-3.305-7.74-3.305-3.18 0-5.774 1.095-7.782 3.284-2.009 2.176-3.013 5.39-3.013 9.644 0 3.403.858 6.276 2.573 8.619 1.73 2.329 4.526 3.493 8.389 3.493zM110.815 202.868c1.408 0 2.566-.146 3.472-.439 1.618-.544 2.943-1.59 3.975-3.138.823-1.241 1.416-2.831 1.778-4.77a18.11 18.11 0 00.314-3.221c0-3.808-.76-6.764-2.28-8.87-1.506-2.106-3.94-3.159-7.301-3.159h-7.384v23.597h7.426zm-11.61-27.174h12.447c4.225 0 7.503 1.499 9.832 4.498 2.078 2.705 3.117 6.171 3.117 10.396 0 3.264-.614 6.213-1.841 8.849-2.162 4.658-5.879 6.987-11.15 6.987H99.205v-30.73zM134.496 175.694v18.995c0 2.231.418 4.086 1.255 5.564 1.241 2.232 3.333 3.347 6.276 3.347 3.528 0 5.927-1.206 7.196-3.619.683-1.311 1.025-3.075 1.025-5.292v-18.995h4.226v17.258c0 3.78-.509 6.688-1.528 8.724-1.868 3.709-5.397 5.564-10.585 5.564-5.188 0-8.709-1.855-10.564-5.564-1.018-2.036-1.527-4.944-1.527-8.724v-17.258h4.226zM160.854 175.694h4.163v27.069h15.564v3.661h-19.727v-30.73zM185.099 175.694h22.405v3.765h-18.346v9.33h16.965v3.557h-16.965v10.417h18.66v3.661h-22.719v-30.73zM216.039 196.509c.098 1.743.509 3.158 1.234 4.246 1.381 2.036 3.815 3.054 7.301 3.054 1.562 0 2.985-.223 4.268-.669 2.482-.865 3.723-2.413 3.723-4.644 0-1.674-.523-2.866-1.569-3.577-1.059-.698-2.719-1.304-4.978-1.82l-4.163-.942c-2.72-.613-4.644-1.29-5.774-2.029-1.952-1.283-2.929-3.2-2.929-5.753 0-2.761.956-5.027 2.866-6.798 1.911-1.772 4.616-2.657 8.117-2.657 3.222 0 5.955.781 8.2 2.343 2.26 1.548 3.389 4.03 3.389 7.447h-3.912c-.209-1.646-.655-2.908-1.339-3.786-1.269-1.604-3.423-2.406-6.464-2.406-2.454 0-4.218.516-5.292 1.548-1.074 1.032-1.611 2.231-1.611 3.598 0 1.506.628 2.608 1.883 3.305.823.447 2.684 1.005 5.585 1.674l4.31.983c2.078.474 3.681 1.123 4.811 1.946 1.953 1.436 2.929 3.521 2.929 6.255 0 3.402-1.241 5.836-3.724 7.3-2.468 1.465-5.341 2.197-8.619 2.197-3.821 0-6.812-.976-8.974-2.929-2.162-1.938-3.222-4.567-3.18-7.886h3.912z" fill="#000"/><path d="M196.924 39H19v177.924h177.924V39z" stroke="#000" stroke-width="5"/></svg>
