<svg width="256" height="256" fill="none" xmlns="http://www.w3.org/2000/svg"><path d="M95.257 228c18.35 0 33.243-14.933 33.243-33.333v-33.334H95.257c-18.35 0-33.244 14.934-33.244 33.334 0 18.4 14.893 33.333 33.244 33.333z" fill="#0ACF83"/><path d="M62.013 128c0-18.4 14.893-33.333 33.244-33.333H128.5v66.666H95.257c-18.35 0-33.244-14.933-33.244-33.333z" fill="#A259FF"/><path d="M62.013 61.333C62.013 42.933 76.906 28 95.257 28H128.5v66.667H95.257c-18.35 0-33.244-14.934-33.244-33.334z" fill="#F24E1E"/><path d="M128.5 28h33.243c18.351 0 33.244 14.933 33.244 33.333s-14.893 33.334-33.244 33.334H128.5V28z" fill="#FF7262"/><path d="M194.987 128c0 18.4-14.893 33.333-33.244 33.333-18.35 0-33.243-14.933-33.243-33.333s14.893-33.333 33.243-33.333c18.351 0 33.244 14.933 33.244 33.333z" fill="#1ABCFE"/></svg>
