<svg width="256" height="256" fill="none" xmlns="http://www.w3.org/2000/svg"><path d="M31.771 119.091l87.323-87.32c5.025-5.028 13.182-5.028 18.214 0l18.132 18.134-23.002 23.003c-5.345-1.807-11.475-.595-15.736 3.666-4.281 4.288-5.484 10.47-3.634 15.833L90.9 114.576c-5.364-1.847-11.552-.652-15.836 3.639-5.986 5.984-5.986 15.684 0 21.672 5.989 5.989 15.688 5.989 21.68 0 4.503-4.508 5.615-11.121 3.335-16.669l20.674-20.674.002 54.405a15.492 15.492 0 00-4.053 2.899c-5.987 5.984-5.987 15.684 0 21.677 5.988 5.986 15.692 5.986 21.672 0 5.987-5.993 5.987-15.692 0-21.677a15.363 15.363 0 00-5.016-3.344v-54.912a15.14 15.14 0 005.016-3.345c4.536-4.53 5.627-11.185 3.302-16.755l22.675-22.678 59.876 59.873c5.031 5.033 5.031 13.191 0 18.22l-87.324 87.321c-5.027 5.029-13.182 5.029-18.216 0l-86.915-86.915c-5.03-5.032-5.03-13.193 0-18.222" fill="#DE4C36"/></svg>
