<svg width="256" height="256" fill="none" xmlns="http://www.w3.org/2000/svg"><path fill="rgb(243, 244, 245)" d="M0 0h256v256H0z"/><g clip-path="url(#clip0)"><path d="M70.967 96.893h40.739v3.229H74.701v24.303H109.5v3.23H74.701v26.682h37.43v3.229H70.967V96.893zm44.389 0h4.329l19.181 26.683 19.606-26.683L185.139 63l-43.811 63.38 22.576 31.186h-4.498l-20.54-28.382-20.624 28.382h-4.414l22.747-31.186-21.219-29.487zm50.161 3.229v-3.229h46.426v3.229h-21.388v57.444h-3.735v-57.444h-21.303zM20 96.893h4.668l64.37 96.058-26.6-35.385-38.534-56.084-.17 56.084H20V96.893zm191.567 56.47c-.763 0-1.336-.59-1.336-1.352 0-.762.573-1.351 1.336-1.351.772 0 1.335.589 1.335 1.351s-.563 1.352-1.335 1.352zm3.669-3.556h1.998c.028 1.08.818 1.805 1.981 1.805 1.298 0 2.034-.78 2.034-2.24v-9.251h2.035v9.26c0 2.63-1.526 4.145-4.051 4.145-2.371 0-3.997-1.469-3.997-3.719zm10.709-.118h2.016c.173 1.243 1.39 2.032 3.143 2.032 1.635 0 2.834-.843 2.834-2.004 0-.998-.763-1.597-2.498-2.005l-1.689-.408c-2.371-.553-3.452-1.696-3.452-3.619 0-2.331 1.908-3.882 4.769-3.882 2.661 0 4.605 1.551 4.723 3.755h-1.98c-.191-1.206-1.244-1.959-2.77-1.959-1.608 0-2.68.771-2.68 1.95 0 .934.69 1.47 2.398 1.869l1.444.353c2.689.626 3.797 1.715 3.797 3.683 0 2.503-1.944 4.072-5.05 4.072-2.907 0-4.86-1.497-5.005-3.837z" fill="#000"/></g><defs><clipPath id="clip0"><path fill="rgb(243, 244, 245)" transform="translate(20 63)" d="M0 0h216v130H0z"/></clipPath></defs></svg>
