<svg width="256" height="256" fill="none" xmlns="http://www.w3.org/2000/svg"><path d="M228.809 18H122.868a47.823 47.823 0 0047.824 47.823h19.515v18.842c.017 26.388 21.405 47.776 47.793 47.793V27.191A9.191 9.191 0 00228.809 18z" fill="#2684FF"/><path d="M176.39 70.787H70.45c.016 26.388 21.404 47.775 47.792 47.792h19.516v18.903c.033 26.388 21.435 47.762 47.823 47.762V79.977a9.191 9.191 0 00-9.191-9.19z" fill="url(#j0)"/><path d="M123.941 123.542H18c0 26.413 21.411 47.824 47.823 47.824H85.4v18.841c.017 26.365 21.367 47.742 47.732 47.793V132.733a9.191 9.191 0 00-9.191-9.191z" fill="url(#j1)"/><defs><linearGradient id="j0" x1="183.314" y1="70.97" x2="138.522" y2="117.709" gradientUnits="userSpaceOnUse"><stop offset=".18" stop-color="#0052CC"/><stop offset="1" stop-color="#2684FF"/></linearGradient><linearGradient id="j1" x1="133.898" y1="124.063" x2="82.084" y2="175.04" gradientUnits="userSpaceOnUse"><stop offset=".18" stop-color="#0052CC"/><stop offset="1" stop-color="#2684FF"/></linearGradient></defs></svg>
